<?xml version="1.0" encoding="utf-8"?>
<!-- Generator: Adobe Illustrator 22.1.0, SVG Export Plug-In . SVG Version: 6.00 Build 0)  -->
<svg version="1.1" id="Layer_1" xmlns="http://www.w3.org/2000/svg" xmlns:xlink="http://www.w3.org/1999/xlink" x="0px" y="0px"
	 viewBox="0 0 308.5 86.3" style="enable-background:new 0 0 308.5 86.3;" xml:space="preserve">
<style type="text/css">
	.st0{fill-rule:evenodd;clip-rule:evenodd;}
	.st1{fill-rule:evenodd;clip-rule:evenodd;fill:#6D6E71;}
	.st2{fill-rule:evenodd;clip-rule:evenodd;fill:#FAA61A;}
</style>
<g>
	<path class="st0" d="M136.4,36.2h171.7l-2,5H134.5L136.4,36.2z M95.9,81.1h194.7l-1.9,5H94L95.9,81.1z M236,45.1
		c4.1,0,5.9,3.5,4.5,8.1l-6.8,17.6c-1.3,3-4.9,6.4-10.4,6.4H193c-4.5,0.2-6.7-3.2-5.1-8.1l6.8-17.6c1.3-3,4.9-6.4,10.4-6.4H236z
		 M216.6,72.1c1.9,0.1,3.1-0.5,3.9-2.1l6.9-17.7c0.5-1.1,0-2.2-1.1-2.2h-13.7c-1.8-0.1-3.1,0.5-3.9,2.1l-6.9,17.7
		c-0.5,1.1,0,2.2,1.1,2.2H216.6z M174,62.7L195.8,45h-7.6L171,58.9l-5.3-13.8h-14.2l7.5,19.4l-4.9,12.6h14.2L174,62.7z M99.4,72.1
		l17.8,0c5.6,0.4,6.5-3.2,7.4-5.1l8.4-21.9h14.2l-9.8,25.4c0,0-2.1,6.6-8.3,6.6l-31.6,0L99.4,72.1z M290.5,45.1h14.2l-12.5,32.1H278
		L290.5,45.1z M246.2,45.1c13.5,0,27,0,40.5,0l-2,5h-13.6l-10.5,27h-14.2l10.5-27h-12.7L246.2,45.1z"/>
	<g>
		<path class="st1" d="M22.9,5.9v9.6c0,0.4,0.1,0.6,0.6,0.7c0.6,0.1,1.2-0.2,1.8-0.4c8.9-2.6,23.4-1.5,30.6,5.3
			c0.7,0.6,1.3,1.3,1.8,2.1l0,0c0,0,0.1-0.1,0.1-0.1c0,0,0.1-0.1,0.1-0.1c0-0.1,0.1-0.1,0.1-0.2c0,0,0.1-0.1,0.1-0.1
			c0-0.1,0.1-0.1,0.1-0.2c0,0,0-0.1,0.1-0.1c0-0.1,0.1-0.2,0.1-0.2c0,0,0,0,0-0.1c0-0.1,0.1-0.2,0.1-0.3c0,0,0,0,0,0
			c0-0.1,0.1-0.2,0.1-0.3l0,0c0-0.1,0.1-0.2,0.1-0.3l0,0c0-0.1,0.1-0.2,0.1-0.3c2.5-7.3-6.7-12.6-12.7-14.3
			c-6.5-2-14.3-2.1-20.8-0.3c-0.6,0.1-1,0.3-1.4,0.4c-0.4,0.1-1,0.1-1.1-0.4C22.9,6,22.9,6,22.9,5.9C22.9,6,22.9,6,22.9,5.9
			C22.9,5.9,22.9,5.9,22.9,5.9"/>
		<path class="st1" d="M92,42.4l-8.3-4.8c-0.3-0.2-0.6-0.2-0.9,0.1c-0.3,0.4-0.4,1.1-0.6,1.8c-2.2,9-10.5,21-20,23.8
			c-0.9,0.3-1.8,0.5-2.7,0.5h0c0,0.1,0,0.1,0.1,0.2c0,0.1,0,0.1,0.1,0.2c0,0.1,0.1,0.1,0.1,0.2c0,0,0,0.1,0.1,0.1
			c0,0.1,0.1,0.1,0.1,0.2c0,0,0,0.1,0.1,0.1c0,0.1,0.1,0.2,0.1,0.2c0,0,0,0,0,0.1c0.1,0.1,0.1,0.2,0.2,0.3c0,0,0,0,0,0
			c0.1,0.1,0.1,0.2,0.2,0.3l0,0c0.1,0.1,0.1,0.2,0.2,0.3l0,0c0.1,0.1,0.2,0.2,0.2,0.3c5.1,5.8,14.3,0.5,18.7-3.8
			c5-4.6,9-11.3,10.8-17.9c0.2-0.6,0.2-1.1,0.4-1.4c0.1-0.4,0.4-0.9,0.9-0.8C91.8,42.3,91.9,42.3,92,42.4
			C91.9,42.3,91.9,42.3,92,42.4C91.9,42.3,92,42.4,92,42.4"/>
		<path class="st2" d="M23,30.4c1,0.5,2.1,1,3.1,1.5c6.5,2.9,13.5,4.2,20.7,4.3c7.2,0.1,15.8-1.2,22.4-4.9c-0.4,0.3-0.9,0.6-1.3,0.9
			c-5.8,4.2-10.4,9.5-14.1,15.8c-3.8,6.3-7.1,14.6-7,22.4c-0.2-2-0.5-4-0.8-5.8c-1.3-7-4.2-13.5-8.2-19.5C34.1,39.5,29,33.9,23,30.4
			 M86.9,24c-5.1,0.3-10.5,2.7-15.2,5.5c0.7-0.5,1.4-1.1,2.1-1.7c5.4-5.1,5.3-11.6,0.2-17c-6.4-6.3-16.2-9.1-24.6-9.9
			C41.1,0.1,33,1.1,25.6,4c-0.7,0.3-1.3,0.6-2,0.9c-0.4,0.2-0.9,0.6-0.7,1.1C23,6.5,23.6,6.5,24,6.5c0.4-0.1,0.9-0.3,1.4-0.4
			C32,4.3,39.8,4.4,46.3,6.4c6,1.7,15.2,7,12.7,14.3C56.5,28,44.7,30.2,37.3,30c-8-0.2-20.1-4.2-25.7-11.3c-0.4-0.5-0.7-0.9-1.1-1.1
			c-0.6-0.3-1.4,0.1-1.4,0.8c0,0.4,0.1,0.8,0.4,1.2c2.7,4,7,7.3,11.5,9.9c-1.8-0.9-3.6-1.5-5.5-1.9C8.2,25.8,3,29.6,1.5,36.9
			c-1.6,8.8,1.7,18.5,5.8,25.8c4.1,7.3,9.5,13.5,16.1,17.9c0.6,0.4,1.2,0.8,1.9,1.1c0.4,0.2,1,0.4,1.3,0c0.3-0.4,0-0.9-0.3-1.2
			c-0.3-0.3-0.7-0.6-1.2-0.9c-5.2-4.4-9.5-10.9-11.6-17.3c-2-5.9-2.9-16.4,4.6-18.6c7.4-2.1,15.9,6.4,20,12.6
			c4.4,6.7,8,18.9,5.2,27.6c-0.2,0.6-0.4,1.1-0.3,1.5c0.1,0.7,0.9,1.1,1.4,0.7c0.3-0.2,0.6-0.6,0.7-1c1.5-3.7,1.9-8,1.8-12.2
			c0.1,0.9,0.2,1.7,0.4,2.6c1.7,7.3,7.4,10.4,14.6,8.7c8.6-2.3,16-9.5,20.9-16.3c4.9-6.8,8.1-14.3,9.3-22.2c0.1-0.7,0.2-1.4,0.2-2.2
			c0-0.4-0.1-1.1-0.6-1.2c-0.5-0.1-0.8,0.4-0.9,0.8c-0.1,0.4-0.2,0.9-0.4,1.4c-1.8,6.6-5.8,13.2-10.8,17.9
			C75.3,66.7,66.1,72,61,66.2c-5.1-5.8-1-17.2,2.9-23.5c4.2-6.8,13.7-15.3,22.7-16.5c0.6-0.1,1.2-0.1,1.5-0.4c0.6-0.4,0.6-1.2,0-1.6
			C87.8,24.1,87.4,24,86.9,24z"/>
		<path class="st1" d="M26.5,81.8l7.9-5.4c0.3-0.2,0.4-0.5,0.3-0.9c-0.3-0.5-0.8-0.9-1.3-1.3C26,68.4,18.7,55.8,20.2,46
			c0.1-0.9,0.3-1.8,0.7-2.7h0c-0.1,0-0.1,0-0.2,0c-0.1,0-0.1,0-0.2,0c-0.1,0-0.1,0-0.2,0c0,0-0.1,0-0.1,0c-0.1,0-0.2,0-0.2,0
			c0,0-0.1,0-0.1,0c-0.1,0-0.2,0-0.3,0c0,0,0,0-0.1,0c-0.1,0-0.2,0-0.3,0c0,0,0,0,0,0c-0.1,0-0.2,0-0.3,0.1l0,0
			c-0.1,0-0.2,0-0.3,0.1l0,0c-0.1,0-0.2,0.1-0.3,0.1c-7.4,2.1-6.5,12.7-4.6,18.6c2.1,6.5,6.4,13,11.6,17.3c0.5,0.4,0.9,0.7,1.2,0.9
			c0.3,0.3,0.6,0.8,0.3,1.2C26.6,81.7,26.5,81.7,26.5,81.8C26.5,81.7,26.5,81.7,26.5,81.8C26.5,81.8,26.5,81.8,26.5,81.8"/>
		<path class="st1" d="M37.7,44.9c4.1,6,6.9,12.5,8.2,19.5c0.4,1.8,0.6,3.8,0.8,5.8c-0.1-7.8,3.2-16,7-22.4
			c3.7-6.3,8.4-11.6,14.1-15.8c0.4-0.3,0.9-0.6,1.3-0.9c-6.6,3.8-15.2,5-22.4,4.9c-7.3-0.1-14.2-1.4-20.7-4.3c-1-0.4-2-0.9-3.1-1.5
			C29,33.9,34.1,39.5,37.7,44.9"/>
	</g>
</g>
</svg>
